<?xml version="1.0" encoding="UTF-8"?>
<!DOCTYPE svg PUBLIC "-//W3C//DTD SVG 1.1//EN" "http://www.w3.org/Graphics/SVG/1.1/DTD/svg11.dtd">
<svg version="1.1" xmlns="http://www.w3.org/2000/svg" xmlns:xlink="http://www.w3.org/1999/xlink" x="0" y="0" width="270.268" height="99.782" viewBox="0, 0, 270.268, 99.782">
  <g id="Layer_1" transform="translate(-68.082, -112.139)">
    <text transform="matrix(1, 0, 0, 1, 203.216, 162.03)">
      <tspan x="-135.134" y="8.109" font-family="Helvetica" font-size="60" fill="#003451">Bid aero</tspan>
    </text>
    <path d="M163.559,156.976 C167.537,156.976 170.762,160.201 170.762,164.179 C170.75,166.439 169.683,168.595 167.869,169.951 C167.498,170.228 167.049,170.516 166.621,170.697 L166.621,170.674 L166.646,170.674 L166.646,170.645 L166.67,170.645 L166.67,170.616 L166.695,170.616 L166.695,170.587 L166.719,170.587 L166.719,170.557 L166.743,170.557 L166.743,170.528 L166.768,170.528 L166.768,170.499 L166.817,170.499 L166.817,170.47 L166.841,170.47 L166.841,170.44 L166.866,170.44 L166.866,170.411 L166.89,170.411 L166.89,170.382 L166.915,170.382 L166.915,170.353 L166.939,170.353 L166.939,170.323 L166.963,170.323 L166.963,170.294 L166.915,170.294 L166.915,170.323 L166.915,170.323 L166.915,170.294 L166.988,170.294 L166.988,170.265 L167.012,170.265 L167.012,170.236 L167.037,170.236 L167.037,170.206 L167.061,170.206 L167.061,170.177 L167.086,170.177 L167.086,170.148 L167.11,170.148 L167.11,170.119 L167.134,170.119 L167.134,170.089 L167.159,170.089 L167.159,170.06 L167.183,170.06 L167.183,170.031 L167.208,170.031 L167.208,170.002 L167.232,170.002 L167.232,169.973 L167.183,169.973 L167.183,170.002 L167.183,170.002 L167.183,169.973 L167.257,169.973 L167.257,169.943 L167.281,169.943 L167.281,169.914 L167.305,169.914 L167.305,169.885 L167.33,169.885 L167.33,169.826 L167.354,169.826 L167.354,169.797 L167.379,169.797 L167.379,169.768 L167.403,169.768 L167.403,169.739 L167.428,169.739 L167.428,169.709 L167.452,169.709 L167.452,169.68 L167.477,169.68 L167.477,169.651 L167.501,169.651 L167.501,169.592 L167.525,169.592 L167.525,169.563 L167.55,169.563 L167.55,169.534 L167.574,169.534 L167.574,169.505 L167.599,169.505 L167.599,169.475 L167.623,169.475 L167.623,169.417 L167.648,169.417 L167.648,169.388 L167.672,169.388 L167.672,169.358 L167.696,169.358 L167.696,169.329 L167.648,169.329 L167.648,169.358 L167.648,169.358 L167.648,169.329 L167.721,169.329 L167.721,169.271 L167.745,169.271 L167.745,169.241 L167.77,169.241 L167.77,169.212 L167.794,169.212 L167.794,169.154 L167.819,169.154 L167.819,169.124 L167.843,169.124 L167.843,169.095 L167.868,169.095 L167.868,169.037 L167.892,169.037 L167.892,169.007 L167.916,169.007 L167.916,168.978 L167.916,168.978 L167.916,168.949 L167.941,168.949 L167.941,168.92 L167.965,168.92 L167.965,168.89 L167.916,168.89 L167.916,168.92 L167.916,168.92 L167.916,168.89 L167.99,168.89 L167.99,168.832 L168.014,168.832 L168.014,168.803 L168.039,168.803 L168.039,168.744 L168.063,168.744 L168.063,168.715 L168.087,168.715 L168.087,168.656 L168.112,168.656 L168.112,168.598 L168.136,168.598 L168.136,168.569 L168.161,168.569 L168.161,168.51 L168.185,168.51 L168.185,168.481 L168.21,168.481 L168.21,168.423 L168.234,168.423 L168.234,168.364 L168.258,168.364 L168.258,168.335 L168.283,168.335 L168.283,168.276 L168.307,168.276 L168.307,168.218 L168.332,168.218 L168.332,168.159 L168.356,168.159 L168.356,168.13 L168.381,168.13 L168.381,168.042 L168.381,168.042 L168.381,167.984 L168.43,167.984 L168.43,167.955 L168.454,167.955 L168.454,167.896 L168.478,167.896 L168.478,167.838 L168.503,167.838 L168.503,167.779 L168.527,167.779 L168.527,167.721 L168.552,167.721 L168.552,167.633 L168.576,167.633 L168.576,167.574 L168.601,167.574 L168.601,167.516 L168.625,167.516 L168.625,167.457 L168.649,167.457 L168.649,167.37 L168.649,167.37 L168.649,167.282 L168.698,167.282 L168.698,167.223 L168.723,167.223 L168.723,167.165 L168.747,167.165 L168.747,167.077 L168.772,167.077 L168.772,166.989 L168.796,166.989 L168.796,166.902 L168.821,166.902 L168.821,166.814 L168.845,166.814 L168.845,166.726 L168.869,166.726 L168.869,166.639 L168.845,166.639 L168.845,166.639 L168.894,166.639 L168.894,166.522 L168.918,166.522 L168.918,166.434 L168.943,166.434 L168.943,166.317 L168.918,166.317 L168.918,166.317 L168.967,166.317 L168.967,166.2 L168.992,166.2 L168.992,166.054 L169.016,166.054 L169.016,165.907 L169.04,165.907 L169.04,165.732 L169.065,165.732 L169.065,165.527 L169.089,165.527 L169.089,165.264 L169.114,165.264 L169.114,165.176 L169.114,165.176 L169.114,165.147 L169.114,165.147 L169.114,164.387 L169.114,164.387 L169.114,164.357 L169.114,164.357 L169.114,164.328 L169.089,164.328 L169.089,164.328 L169.114,164.328 L169.114,164.036 L169.089,164.036 L169.089,163.802 L169.065,163.802 L169.065,163.597 L169.04,163.597 L169.04,163.422 L168.992,163.422 L168.992,163.422 L169.016,163.422 L169.016,163.275 L168.992,163.275 L168.992,163.158 L168.967,163.158 L168.967,163.041 L168.943,163.041 L168.943,162.924 L168.918,162.924 L168.918,162.837 L168.894,162.837 L168.894,162.749 L168.869,162.749 L168.869,162.661 L168.845,162.661 L168.845,162.573 L168.821,162.573 L168.821,162.486 L168.796,162.486 L168.796,162.427 L168.772,162.427 L168.772,162.427 L168.796,162.427 L168.796,162.398 L168.772,162.398 L168.772,162.339 L168.747,162.339 L168.747,162.252 L168.723,162.252 L168.723,162.193 L168.698,162.193 L168.698,162.135 L168.674,162.135 L168.674,162.076 L168.649,162.076 L168.649,162.135 L168.649,162.135 L168.649,162.076 L168.674,162.076 L168.674,162.047 L168.649,162.047 L168.649,162.018 L168.625,162.018 L168.625,162.018 L168.601,162.018 L168.601,162.018 L168.649,162.018 L168.649,161.988 L168.625,161.988 L168.625,161.93 L168.576,161.93 L168.576,161.93 L168.601,161.93 L168.601,161.871 L168.576,161.871 L168.576,161.813 L168.552,161.813 L168.552,161.755 L168.527,161.755 L168.527,161.725 L168.503,161.725 L168.503,161.667 L168.478,161.667 L168.478,161.608 L168.43,161.608 L168.43,161.608 L168.454,161.608 L168.454,161.55 L168.43,161.55 L168.43,161.521 L168.405,161.521 L168.405,161.521 L168.381,161.521 L168.381,161.491 L168.405,161.491 L168.405,161.462 L168.381,161.462 L168.381,161.433 L168.332,161.433 L168.332,161.433 L168.381,161.433 L168.381,161.404 L168.356,161.404 L168.356,161.374 L168.332,161.374 L168.332,161.345 L168.283,161.345 L168.283,161.345 L168.332,161.345 L168.332,161.316 L168.307,161.316 L168.307,161.287 L168.283,161.287 L168.283,161.228 L168.258,161.228 L168.258,161.199 L168.234,161.199 L168.234,161.14 L168.21,161.14 L168.21,161.111 L168.185,161.111 L168.185,161.082 L168.161,161.082 L168.161,161.023 L168.136,161.023 L168.136,160.994 L168.112,160.994 L168.112,160.965 L168.087,160.965 L168.087,160.936 L168.063,160.936 L168.063,160.936 L168.039,160.936 L168.039,160.936 L168.063,160.936 L168.063,160.877 L168.039,160.877 L168.039,160.848 L168.014,160.848 L168.014,160.819 L167.99,160.819 L167.99,160.76 L167.965,160.76 L167.965,160.731 L167.916,160.731 L167.916,160.76 L167.916,160.76 L167.916,160.731 L167.941,160.731 L167.941,160.702 L167.916,160.702 L167.916,160.672 L167.892,160.672 L167.892,160.643 L167.868,160.643 L167.868,160.614 L167.843,160.614 L167.843,160.585 L167.819,160.585 L167.819,160.555 L167.794,160.555 L167.794,160.526 L167.745,160.526 L167.745,160.526 L167.77,160.526 L167.77,160.497 L167.745,160.497 L167.745,160.468 L167.721,160.468 L167.721,160.438 L167.696,160.438 L167.696,160.409 L167.648,160.409 L167.648,160.438 L167.648,160.438 L167.648,160.409 L167.672,160.409 L167.672,160.38 L167.648,160.38 L167.648,160.351 L167.623,160.351 L167.623,160.321 L167.599,160.321 L167.599,160.292 L167.574,160.292 L167.574,160.263 L167.55,160.263 L167.55,160.234 L167.525,160.234 L167.525,160.204 L167.501,160.204 L167.501,160.175 L167.452,160.175 L167.452,160.146 L167.428,160.146 L167.428,160.117 L167.403,160.117 L167.403,160.088 L167.379,160.088 L167.379,160.058 L167.354,160.058 L167.354,160.029 L167.305,160.029 L167.305,160 L167.281,160 L167.281,159.971 L167.257,159.971 L167.257,159.941 L167.232,159.941 L167.232,159.912 L167.183,159.912 L167.183,159.883 L167.159,159.883 L167.159,159.854 L167.086,159.854 L167.086,159.854 L167.11,159.854 L167.11,159.824 L167.086,159.824 L167.086,159.795 L167.037,159.795 L167.037,159.766 L167.012,159.766 L167.012,159.737 L166.988,159.737 L166.988,159.707 L166.915,159.707 L166.915,159.737 L166.915,159.737 L166.915,159.707 L166.939,159.707 L166.939,159.678 L166.89,159.678 L166.89,159.649 L166.866,159.649 L166.866,159.62 L166.792,159.62 L166.792,159.62 L166.768,159.62 L166.768,159.62 L166.817,159.62 L166.817,159.59 L166.768,159.59 L166.768,159.561 L166.743,159.561 L166.743,159.532 L166.695,159.532 L166.695,159.532 L166.621,159.532 L166.621,159.532 L166.695,159.532 L166.695,159.503 L166.646,159.503 L166.646,159.473 L166.597,159.473 L166.597,159.444 L166.548,159.444 L166.548,159.444 L166.499,159.444 L166.499,159.444 L166.548,159.444 L166.548,159.415 L166.499,159.415 L166.499,159.386 L166.45,159.386 L166.45,159.415 L166.45,159.415 L166.45,159.386 L166.45,159.386 L166.45,159.356 L166.401,159.356 L166.401,159.327 L166.352,159.327 L166.352,159.298 L166.304,159.298 L166.304,159.269 L166.255,159.269 L166.255,159.239 L166.181,159.239 L166.181,159.269 L166.181,159.269 L166.181,159.239 L166.181,159.239 L166.181,159.21 L166.133,159.21 L166.133,159.181 L166.059,159.181 L166.059,159.152 L166.01,159.152 L166.01,159.122 L165.913,159.122 L165.913,159.122 L165.864,159.122 L165.864,159.122 L165.937,159.122 L165.937,159.093 L165.864,159.093 L165.864,159.064 L165.79,159.064 L165.79,159.035 L165.717,159.035 L165.717,159.005 L165.644,159.005 L165.644,158.976 L165.546,158.976 L165.546,158.947 L165.448,158.947 L165.448,158.976 L165.448,158.976 L165.448,158.947 L165.448,158.947 L165.448,158.918 L165.375,158.918 L165.375,158.888 L165.253,158.888 L165.253,158.859 L165.131,158.859 L165.131,158.83 L164.984,158.83 L164.984,158.801 L164.789,158.801 L164.789,158.83 L164.789,158.83 L164.789,158.771 L164.593,158.771 L164.593,158.742 L163.982,158.742 L163.982,158.771 L163.982,158.771 L163.982,158.742 L163.567,158.742 L163.567,158.771 L163.518,158.771 L163.518,158.801 L163.518,158.801 L163.518,158.771 L163.347,158.771 L163.347,158.801 L163.176,158.801 L163.176,158.83 L163.005,158.83 L163.005,158.859 L162.882,158.859 L162.882,158.888 L162.858,158.888 L162.858,158.918 L162.858,158.918 L162.858,158.888 L162.785,158.888 L162.785,158.918 L162.663,158.918 L162.663,158.947 L162.565,158.947 L162.565,158.976 L162.467,158.976 L162.467,159.005 L162.369,159.005 L162.369,159.035 L162.296,159.035 L162.296,159.064 L162.223,159.064 L162.223,159.093 L162.149,159.093 L162.149,159.122 L162.247,159.122 L162.247,159.093 L162.247,159.093 L162.247,159.122 L162.149,159.122 L162.149,159.122 L162.052,159.122 L162.052,159.152 L161.978,159.152 L161.978,159.181 L161.929,159.181 L161.929,159.21 L161.856,159.21 L161.856,159.239 L161.807,159.239 L161.807,159.269 L161.734,159.269 L161.734,159.298 L161.685,159.298 L161.685,159.327 L161.612,159.327 L161.612,159.356 L161.587,159.356 L161.587,159.386 L161.587,159.386 L161.587,159.356 L161.563,159.356 L161.563,159.386 L161.49,159.386 L161.49,159.415 L161.441,159.415 L161.441,159.444 L161.392,159.444 L161.392,159.473 L161.343,159.473 L161.343,159.503 L161.294,159.503 L161.294,159.532 L161.245,159.532 L161.245,159.561 L161.196,159.561 L161.196,159.59 L161.147,159.59 L161.147,159.62 L161.099,159.62 L161.099,159.649 L161.05,159.649 L161.05,159.678 L161.001,159.678 L161.001,159.707 L160.976,159.707 L160.976,159.737 L160.928,159.737 L160.928,159.766 L160.879,159.766 L160.879,159.795 L160.854,159.795 L160.854,159.824 L160.805,159.824 L160.805,159.854 L160.854,159.854 L160.854,159.854 L160.757,159.854 L160.757,159.883 L160.732,159.883 L160.732,159.912 L160.683,159.912 L160.683,159.941 L160.659,159.941 L160.659,159.971 L160.61,159.971 L160.61,160 L160.585,160 L160.585,160.029 L160.585,160.029 L160.585,160 L160.561,160 L160.561,160.029 L160.537,160.029 L160.537,160.058 L160.512,160.058 L160.512,160.088 L160.463,160.088 L160.463,160.117 L160.439,160.117 L160.439,160.146 L160.39,160.146 L160.39,160.204 L160.39,160.204 L160.39,160.175 L160.366,160.175 L160.366,160.204 L160.341,160.204 L160.341,160.234 L160.317,160.234 L160.317,160.263 L160.317,160.263 L160.317,160.234 L160.292,160.234 L160.292,160.263 L160.268,160.263 L160.268,160.292 L160.243,160.292 L160.243,160.321 L160.194,160.321 L160.194,160.351 L160.17,160.351 L160.17,160.38 L160.146,160.38 L160.146,160.409 L160.097,160.409 L160.097,160.438 L160.072,160.438 L160.072,160.468 L160.048,160.468 L160.048,160.497 L160.023,160.497 L160.023,160.526 L160.072,160.526 L160.072,160.526 L159.999,160.526 L159.999,160.555 L159.975,160.555 L159.975,160.585 L159.95,160.585 L159.95,160.614 L159.926,160.614 L159.926,160.643 L159.877,160.643 L159.877,160.672 L159.852,160.672 L159.852,160.702 L159.828,160.702 L159.828,160.731 L159.803,160.731 L159.803,160.76 L159.779,160.76 L159.779,160.789 L159.755,160.789 L159.755,160.819 L159.73,160.819 L159.73,160.848 L159.706,160.848 L159.706,160.877 L159.681,160.877 L159.681,160.906 L159.657,160.906 L159.657,160.965 L159.657,160.965 L159.657,160.936 L159.632,160.936 L159.632,160.965 L159.608,160.965 L159.608,160.994 L159.584,160.994 L159.584,161.023 L159.559,161.023 L159.559,161.053 L159.535,161.053 L159.535,161.082 L159.51,161.082 L159.51,161.111 L159.486,161.111 L159.486,161.14 L159.461,161.14 L159.461,161.199 L159.461,161.199 L159.461,161.17 L159.437,161.17 L159.437,161.228 L159.413,161.228 L159.413,161.257 L159.388,161.257 L159.388,161.287 L159.364,161.287 L159.364,161.316 L159.339,161.316 L159.339,161.345 L159.388,161.345 L159.388,161.345 L159.315,161.345 L159.315,161.404 L159.29,161.404 L159.29,161.433 L159.266,161.433 L159.266,161.462 L159.241,161.462 L159.241,161.491 L159.217,161.491 L159.217,161.55 L159.193,161.55 L159.193,161.579 L159.168,161.579 L159.168,161.608 L159.193,161.608 L159.193,161.608 L159.144,161.608 L159.144,161.667 L159.119,161.667 L159.119,161.696 L159.095,161.696 L159.095,161.725 L159.07,161.725 L159.07,161.784 L159.046,161.784 L159.046,161.813 L159.022,161.813 L159.022,161.871 L158.997,161.871 L158.997,161.901 L158.973,161.901 L158.973,161.93 L159.022,161.93 L159.022,161.93 L158.973,161.93 L158.973,161.959 L158.948,161.959 L158.948,161.988 L158.924,161.988 L158.924,162.047 L158.899,162.047 L158.899,162.105 L158.875,162.105 L158.875,162.135 L158.85,162.135 L158.85,162.193 L158.826,162.193 L158.826,162.252 L158.802,162.252 L158.802,162.31 L158.777,162.31 L158.777,162.369 L158.753,162.369 L158.753,162.427 L158.728,162.427 L158.728,162.456 L158.704,162.456 L158.704,162.544 L158.679,162.544 L158.679,162.573 L158.655,162.573 L158.655,162.661 L158.631,162.661 L158.631,162.72 L158.606,162.72 L158.606,162.778 L158.582,162.778 L158.582,162.837 L158.557,162.837 L158.557,162.924 L158.533,162.924 L158.533,163.012 L158.508,163.012 L158.508,163.071 L158.484,163.071 L158.484,163.158 L158.459,163.158 L158.459,163.246 L158.435,163.246 L158.435,163.334 L158.411,163.334 L158.411,163.422 L158.435,163.422 L158.435,163.422 L158.386,163.422 L158.386,163.538 L158.362,163.538 L158.362,163.655 L158.337,163.655 L158.337,163.772 L158.313,163.772 L158.313,163.919 L158.337,163.919 L158.337,163.919 L158.313,163.919 L158.313,163.948 L158.288,163.948 L158.288,164.123 L158.264,164.123 L158.264,164.328 L158.288,164.328 L158.288,164.328 L158.264,164.328 L158.264,164.387 L158.24,164.387 L158.24,164.913 L158.264,164.913 L158.264,164.913 L158.24,164.913 L158.24,165.205 L158.264,165.205 L158.264,165.439 L158.288,165.439 L158.288,165.615 L158.313,165.615 L158.313,165.761 L158.337,165.761 L158.337,165.878 L158.362,165.878 L158.362,165.995 L158.386,165.995 L158.386,166.083 L158.411,166.083 L158.411,166.2 L158.435,166.2 L158.435,166.258 L158.459,166.258 L158.459,166.317 L158.484,166.317 L158.484,166.317 L158.459,166.317 L158.459,166.346 L158.484,166.346 L158.484,166.405 L158.508,166.405 L158.508,166.492 L158.533,166.492 L158.533,166.551 L158.557,166.551 L158.557,166.609 L158.582,166.609 L158.582,166.639 L158.606,166.639 L158.606,166.639 L158.582,166.639 L158.582,166.668 L158.606,166.668 L158.606,166.726 L158.655,166.726 L158.655,166.726 L158.631,166.726 L158.631,166.785 L158.655,166.785 L158.655,166.843 L158.679,166.843 L158.679,166.902 L158.704,166.902 L158.704,166.96 L158.728,166.96 L158.728,166.989 L158.753,166.989 L158.753,167.048 L158.777,167.048 L158.777,167.077 L158.802,167.077 L158.802,167.136 L158.826,167.136 L158.826,167.165 L158.85,167.165 L158.85,167.194 L158.85,167.194 L158.85,167.223 L158.899,167.223 L158.899,167.223 L158.875,167.223 L158.875,167.253 L158.899,167.253 L158.899,167.311 L158.924,167.311 L158.924,167.34 L158.948,167.34 L158.948,167.37 L158.973,167.37 L158.973,167.399 L158.997,167.399 L158.997,167.428 L159.022,167.428 L159.022,167.487 L159.046,167.487 L159.046,167.516 L159.07,167.516 L159.07,167.545 L159.095,167.545 L159.095,167.574 L159.119,167.574 L159.119,167.545 L159.119,167.545 L159.119,167.604 L159.144,167.604 L159.144,167.633 L159.168,167.633 L159.168,167.662 L159.193,167.662 L159.193,167.691 L159.217,167.691 L159.217,167.721 L159.241,167.721 L159.241,167.75 L159.266,167.75 L159.266,167.779 L159.29,167.779 L159.29,167.808 L159.315,167.808 L159.315,167.838 L159.339,167.838 L159.339,167.867 L159.364,167.867 L159.364,167.896 L159.413,167.896 L159.413,167.925 L159.437,167.925 L159.437,167.955 L159.461,167.955 L159.461,167.925 L159.461,167.925 L159.461,167.984 L159.486,167.984 L159.486,168.013 L159.535,168.013 L159.535,168.042 L159.559,168.042 L159.559,168.072 L159.608,168.072 L159.608,168.101 L159.632,168.101 L159.632,168.13 L159.657,168.13 L159.657,168.101 L159.657,168.101 L159.657,168.159 L159.706,168.159 L159.706,168.189 L159.73,168.189 L159.73,168.218 L159.779,168.218 L159.779,168.247 L159.803,168.247 L159.803,168.276 L159.852,168.276 L159.852,168.306 L159.901,168.306 L159.901,168.335 L159.95,168.335 L159.95,168.364 L159.999,168.364 L159.999,168.393 L160.048,168.393 L160.048,168.423 L160.097,168.423 L160.097,168.452 L160.146,168.452 L160.146,168.481 L160.219,168.481 L160.219,168.51 L160.268,168.51 L160.268,168.539 L160.317,168.539 L160.317,168.51 L160.317,168.51 L160.317,168.569 L160.39,168.569 L160.39,168.539 L160.39,168.539 L160.39,168.598 L160.463,168.598 L160.463,168.627 L160.537,168.627 L160.537,168.656 L160.585,168.656 L160.585,168.627 L160.585,168.627 L160.585,168.656 L160.634,168.656 L160.634,168.686 L160.708,168.686 L160.708,168.715 L160.83,168.715 L160.83,168.744 L160.854,168.744 L160.854,168.715 L160.854,168.715 L160.854,168.744 L160.928,168.744 L160.928,168.773 L161.05,168.773 L161.05,168.744 L161.05,168.744 L161.05,168.773 L161.099,168.773 L161.099,168.803 L161.319,168.803 L161.319,168.832 L161.587,168.832 L161.587,168.803 L161.587,168.803 L161.587,168.832 L161.954,168.832 L161.954,168.803 L162.174,168.803 L162.174,168.773 L162.32,168.773 L162.32,168.744 L162.443,168.744 L162.443,168.715 L162.565,168.715 L162.565,168.686 L162.638,168.686 L162.638,168.656 L162.736,168.656 L162.736,168.627 L162.785,168.627 L162.785,168.598 L162.858,168.598 L162.858,168.569 L162.956,168.569 L162.956,168.539 L163.029,168.539 L163.029,168.51 L163.102,168.51 L163.102,168.481 L163.151,168.481 L163.151,168.452 L163.225,168.452 L163.225,168.423 L163.273,168.423 L163.273,168.393 L163.322,168.393 L163.322,168.364 L163.371,168.364 L163.371,168.335 L163.42,168.335 L163.42,168.306 L163.469,168.306 L163.469,168.276 L163.518,168.276 L163.518,168.218 L163.518,168.218 L163.518,168.247 L163.567,168.247 L163.567,168.218 L163.616,168.218 L163.616,168.189 L163.664,168.189 L163.664,168.159 L163.689,168.159 L163.689,168.13 L163.738,168.13 L163.738,168.101 L163.787,168.101 L163.787,168.072 L163.811,168.072 L163.811,168.042 L163.86,168.042 L163.86,168.013 L163.884,168.013 L163.884,167.984 L163.933,167.984 L163.933,167.955 L163.958,167.955 L163.958,167.925 L163.982,167.925 L163.982,167.867 L164.055,167.867 L164.055,167.838 L164.08,167.838 L164.08,167.808 L164.129,167.808 L164.129,167.779 L164.153,167.779 L164.153,167.75 L164.178,167.75 L164.178,167.721 L164.202,167.721 L164.202,167.691 L164.226,167.691 L164.226,167.662 L164.275,167.662 L164.275,167.633 L164.3,167.633 L164.3,167.604 L164.324,167.604 L164.324,167.574 L164.349,167.574 L164.349,167.545 L164.373,167.545 L164.373,167.516 L164.398,167.516 L164.398,167.487 L164.422,167.487 L164.422,167.457 L164.446,167.457 L164.446,167.428 L164.471,167.428 L164.471,167.399 L164.495,167.399 L164.495,167.37 L164.52,167.37 L164.52,167.34 L164.544,167.34 L164.544,167.311 L164.569,167.311 L164.569,167.282 L164.593,167.282 L164.593,167.223 L164.617,167.223 L164.617,167.194 L164.642,167.194 L164.642,167.165 L164.666,167.165 L164.666,167.136 L164.691,167.136 L164.691,167.077 L164.715,167.077 L164.715,167.048 L164.74,167.048 L164.74,167.019 L164.764,167.019 L164.764,166.989 L164.715,166.989 L164.715,167.019 L164.715,167.019 L164.715,166.989 L164.789,166.989 L164.789,166.872 L164.837,166.872 L164.837,166.843 L164.862,166.843 L164.862,166.785 L164.886,166.785 L164.886,166.756 L164.911,166.756 L164.911,166.726 L164.886,166.726 L164.886,166.726 L164.911,166.726 L164.911,166.697 L164.935,166.697 L164.935,166.639 L164.96,166.639 L164.96,166.609 L164.984,166.609 L164.984,166.551 L165.008,166.551 L165.008,166.492 L165.033,166.492 L165.033,166.434 L165.057,166.434 L165.057,166.346 L165.082,166.346 L165.082,166.288 L165.106,166.288 L165.106,166.229 L165.131,166.229 L165.131,166.141 L165.155,166.141 L165.155,166.054 L165.18,166.054 L165.18,165.966 L165.204,165.966 L165.204,165.878 L165.228,165.878 L165.228,165.761 L165.253,165.761 L165.253,165.615 L165.277,165.615 L165.277,165.352 L165.302,165.352 L165.302,165.001 L165.277,165.001 L165.277,164.913 L165.253,164.913 L165.253,164.913 L165.277,164.913 L165.277,164.738 L165.253,164.738 L165.253,164.621 L165.228,164.621 L165.228,164.504 L165.204,164.504 L165.204,164.416 L165.18,164.416 L165.18,164.328 L165.131,164.328 L165.131,164.328 L165.155,164.328 L165.155,164.24 L165.131,164.24 L165.131,164.182 L165.106,164.182 L165.106,164.123 L165.082,164.123 L165.082,164.036 L165.057,164.036 L165.057,164.006 L165.033,164.006 L165.033,163.948 L165.008,163.948 L165.008,163.919 L164.984,163.919 L164.984,163.919 L164.96,163.919 L164.96,163.919 L165.008,163.919 L165.008,163.889 L164.984,163.889 L164.984,163.831 L164.96,163.831 L164.96,163.802 L164.935,163.802 L164.935,163.772 L164.911,163.772 L164.911,163.714 L164.886,163.714 L164.886,163.685 L164.862,163.685 L164.862,163.655 L164.837,163.655 L164.837,163.597 L164.813,163.597 L164.813,163.568 L164.789,163.568 L164.789,163.626 L164.789,163.626 L164.789,163.538 L164.764,163.538 L164.764,163.509 L164.715,163.509 L164.715,163.538 L164.715,163.538 L164.715,163.509 L164.74,163.509 L164.74,163.48 L164.715,163.48 L164.715,163.451 L164.691,163.451 L164.691,163.422 L164.593,163.422 L164.593,163.422 L164.642,163.422 L164.642,163.392 L164.617,163.392 L164.617,163.363 L164.593,163.363 L164.593,163.334 L164.569,163.334 L164.569,163.305 L164.52,163.305 L164.52,163.275 L164.495,163.275 L164.495,163.246 L164.446,163.246 L164.446,163.217 L164.422,163.217 L164.422,163.188 L164.373,163.188 L164.373,163.158 L164.324,163.158 L164.324,163.129 L164.275,163.129 L164.275,163.1 L164.226,163.1 L164.226,163.071 L164.178,163.071 L164.178,163.041 L164.104,163.041 L164.104,163.012 L164.055,163.012 L164.055,162.983 L163.982,162.983 L163.982,163.012 L163.982,163.012 L163.982,162.983 L163.958,162.983 L163.958,162.954 L163.86,162.954 L163.86,162.924 L163.689,162.924 L163.689,162.924 L163.249,162.924 L163.249,162.924 L163.518,162.924 L163.518,162.895 L163.249,162.895 L163.249,162.924 L163.078,162.924 L163.078,162.954 L162.956,162.954 L162.956,162.983 L162.882,162.983 L162.882,163.012 L162.858,163.012 L162.858,163.041 L162.858,163.041 L162.858,163.012 L162.809,163.012 L162.809,163.041 L162.736,163.041 L162.736,163.071 L162.687,163.071 L162.687,163.1 L162.638,163.1 L162.638,163.129 L162.589,163.129 L162.589,163.158 L162.54,163.158 L162.54,163.188 L162.492,163.188 L162.492,163.217 L162.467,163.217 L162.467,163.246 L162.443,163.246 L162.443,163.275 L162.394,163.275 L162.394,163.305 L162.369,163.305 L162.369,163.334 L162.345,163.334 L162.345,163.363 L162.296,163.363 L162.296,163.392 L162.272,163.392 L162.272,163.422 L162.32,163.422 L162.32,163.422 L162.247,163.422 L162.247,163.451 L162.223,163.451 L162.223,163.48 L162.198,163.48 L162.198,163.509 L162.174,163.509 L162.174,163.538 L162.149,163.538 L162.149,163.597 L162.125,163.597 L162.125,163.626 L162.101,163.626 L162.101,163.655 L162.076,163.655 L162.076,163.685 L162.052,163.685 L162.052,163.714 L162.027,163.714 L162.027,163.743 L162.003,163.743 L162.003,163.772 L161.978,163.772 L161.978,163.802 L161.954,163.802 L161.954,163.86 L161.929,163.86 L161.929,163.889 L161.905,163.889 L161.905,163.919 L161.881,163.919 L161.881,163.977 L161.856,163.977 L161.856,164.036 L161.832,164.036 L161.832,164.065 L161.807,164.065 L161.807,164.123 L161.783,164.123 L161.783,164.182 L161.758,164.182 L161.758,164.24 L161.734,164.24 L161.734,164.328 L161.758,164.328 L161.758,164.328 L161.71,164.328 L161.71,164.416 L161.685,164.416 L161.685,164.913 L161.734,164.913 L161.734,164.913 L161.685,164.913 L161.685,164.942 L161.71,164.942 L161.71,165.03 L161.734,165.03 L161.734,165.118 L161.758,165.118 L161.758,165.176 L161.783,165.176 L161.783,165.235 L161.807,165.235 L161.807,165.264 L161.832,165.264 L161.832,165.293 L161.856,165.293 L161.856,165.352 L161.881,165.352 L161.881,165.381 L161.905,165.381 L161.905,165.41 L161.929,165.41 L161.929,165.439 L161.954,165.439 L161.954,165.469 L161.978,165.469 L161.978,165.498 L162.003,165.498 L162.003,165.527 L162.027,165.527 L162.027,165.556 L162.052,165.556 L162.052,165.586 L162.101,165.586 L162.101,165.615 L162.149,165.615 L162.149,165.644 L162.174,165.644 L162.174,165.673 L162.223,165.673 L162.223,165.703 L162.272,165.703 L162.272,165.732 L162.369,165.732 L162.369,165.761 L162.418,165.761 L162.418,165.79 L162.785,165.79 L162.785,165.732 L162.98,165.732 L162.98,165.703 L163.029,165.703 L163.029,165.673 L163.078,165.673 L163.078,165.644 L163.127,165.644 L163.127,165.615 L163.151,165.615 L163.151,165.586 L163.2,165.586 L163.2,165.556 L163.225,165.556 L163.225,165.527 L163.249,165.527 L163.249,165.498 L163.273,165.498 L163.273,165.469 L163.322,165.469 L163.322,165.41 L163.347,165.41 L163.347,165.381 L163.371,165.381 L163.371,165.352 L163.396,165.352 L163.396,165.322 L163.42,165.322 L163.42,165.264 L163.445,165.264 L163.445,165.235 L163.469,165.235 L163.469,165.176 L163.493,165.176 L163.493,165.147 L163.518,165.147 L163.518,165.235 L163.542,165.235 L163.542,165.352 L163.567,165.352 L163.567,165.498 L163.591,165.498 L163.591,165.527 L163.567,165.527 L163.567,165.673 L163.542,165.673 L163.542,165.79 L163.518,165.79 L163.518,165.849 L163.493,165.849 L163.493,165.907 L163.469,165.907 L163.469,165.966 L163.445,165.966 L163.445,165.995 L163.42,165.995 L163.42,166.054 L163.396,166.054 L163.396,166.112 L163.371,166.112 L163.371,166.141 L163.347,166.141 L163.347,166.171 L163.322,166.171 L163.322,166.2 L163.298,166.2 L163.298,166.229 L163.273,166.229 L163.273,166.258 L163.249,166.258 L163.249,166.288 L163.225,166.288 L163.225,166.317 L163.273,166.317 L163.273,166.317 L163.2,166.317 L163.2,166.346 L163.176,166.346 L163.176,166.375 L163.151,166.375 L163.151,166.405 L163.127,166.405 L163.127,166.434 L163.078,166.434 L163.078,166.463 L163.054,166.463 L163.054,166.492 L163.029,166.492 L163.029,166.522 L162.98,166.522 L162.98,166.551 L162.931,166.551 L162.931,166.58 L162.907,166.58 L162.907,166.609 L162.858,166.609 L162.858,166.639 L162.907,166.639 L162.907,166.639 L162.858,166.639 L162.858,166.668 L162.858,166.668 L162.858,166.639 L162.809,166.639 L162.809,166.668 L162.785,166.668 L162.785,166.697 L162.785,166.697 L162.785,166.668 L162.76,166.668 L162.76,166.697 L162.711,166.697 L162.711,166.726 L162.785,166.726 L162.785,166.726 L162.663,166.726 L162.663,166.756 L162.589,166.756 L162.589,166.785 L162.516,166.785 L162.516,166.814 L162.443,166.814 L162.443,166.843 L162.345,166.843 L162.345,166.872 L162.223,166.872 L162.223,166.902 L162.076,166.902 L162.076,166.931 L161.587,166.931 L161.587,166.96 L161.587,166.96 L161.587,166.931 L161.563,166.931 L161.563,166.902 L161.416,166.902 L161.416,166.872 L161.319,166.872 L161.319,166.902 L161.319,166.902 L161.319,166.872 L161.343,166.872 L161.343,166.843 L161.245,166.843 L161.245,166.814 L161.172,166.814 L161.172,166.814 L161.123,166.814 L161.123,166.814 L161.172,166.814 L161.172,166.785 L161.123,166.785 L161.123,166.756 L161.05,166.756 L161.05,166.785 L161.05,166.785 L161.05,166.726 L160.928,166.726 L160.928,166.726 L161.001,166.726 L161.001,166.697 L160.952,166.697 L160.952,166.668 L160.903,166.668 L160.903,166.639 L160.854,166.639 L160.854,166.668 L160.854,166.668 L160.854,166.639 L160.805,166.639 L160.805,166.639 L160.854,166.639 L160.854,166.609 L160.83,166.609 L160.83,166.58 L160.781,166.58 L160.781,166.551 L160.757,166.551 L160.757,166.522 L160.732,166.522 L160.732,166.492 L160.683,166.492 L160.683,166.463 L160.659,166.463 L160.659,166.434 L160.634,166.434 L160.634,166.405 L160.61,166.405 L160.61,166.375 L160.585,166.375 L160.585,166.434 L160.585,166.434 L160.585,166.346 L160.561,166.346 L160.561,166.317 L160.488,166.317 L160.488,166.317 L160.537,166.317 L160.537,166.288 L160.488,166.288 L160.488,166.258 L160.463,166.258 L160.463,166.2 L160.439,166.2 L160.439,166.171 L160.414,166.171 L160.414,166.141 L160.39,166.141 L160.39,166.2 L160.39,166.2 L160.39,166.112 L160.366,166.112 L160.366,166.083 L160.341,166.083 L160.341,166.024 L160.317,166.024 L160.317,166.083 L160.317,166.083 L160.317,165.995 L160.292,165.995 L160.292,165.937 L160.268,165.937 L160.268,165.907 L160.243,165.907 L160.243,165.849 L160.219,165.849 L160.219,165.82 L160.194,165.82 L160.194,165.82 L160.17,165.82 L160.17,165.82 L160.219,165.82 L160.219,165.79 L160.194,165.79 L160.194,165.732 L160.17,165.732 L160.17,165.673 L160.146,165.673 L160.146,165.615 L160.121,165.615 L160.121,165.556 L160.097,165.556 L160.097,165.469 L160.072,165.469 L160.072,165.381 L160.048,165.381 L160.048,165.293 L160.023,165.293 L160.023,165.176 L159.999,165.176 L159.999,165.059 L159.975,165.059 L159.975,164.913 L159.95,164.913 L159.95,164.913 L159.975,164.913 L159.975,164.855 L159.95,164.855 L159.95,164.328 L159.926,164.328 L159.926,164.328 L159.95,164.328 L159.95,164.211 L159.975,164.211 L159.975,164.006 L159.999,164.006 L159.999,163.86 L160.023,163.86 L160.023,163.743 L160.048,163.743 L160.048,163.655 L160.072,163.655 L160.072,163.568 L160.097,163.568 L160.097,163.48 L160.121,163.48 L160.121,163.422 L160.097,163.422 L160.097,163.422 L160.121,163.422 L160.121,163.392 L160.146,163.392 L160.146,163.334 L160.17,163.334 L160.17,163.275 L160.194,163.275 L160.194,163.217 L160.219,163.217 L160.219,163.158 L160.243,163.158 L160.243,163.1 L160.268,163.1 L160.268,163.041 L160.292,163.041 L160.292,162.983 L160.317,162.983 L160.317,162.866 L160.366,162.866 L160.366,162.837 L160.39,162.837 L160.39,162.72 L160.439,162.72 L160.439,162.69 L160.463,162.69 L160.463,162.632 L160.488,162.632 L160.488,162.603 L160.512,162.603 L160.512,162.573 L160.537,162.573 L160.537,162.515 L160.561,162.515 L160.561,162.486 L160.585,162.486 L160.585,162.398 L160.634,162.398 L160.634,162.369 L160.659,162.369 L160.659,162.339 L160.683,162.339 L160.683,162.31 L160.708,162.31 L160.708,162.281 L160.732,162.281 L160.732,162.252 L160.757,162.252 L160.757,162.222 L160.781,162.222 L160.781,162.193 L160.805,162.193 L160.805,162.164 L160.83,162.164 L160.83,162.135 L160.854,162.135 L160.854,162.047 L160.903,162.047 L160.903,162.018 L160.928,162.018 L160.928,161.988 L160.976,161.988 L160.976,161.959 L161.001,161.959 L161.001,161.93 L160.976,161.93 L160.976,161.93 L161.025,161.93 L161.025,161.901 L161.05,161.901 L161.05,161.813 L161.123,161.813 L161.123,161.784 L161.172,161.784 L161.172,161.755 L161.196,161.755 L161.196,161.725 L161.221,161.725 L161.221,161.696 L161.245,161.696 L161.245,161.667 L161.294,161.667 L161.294,161.638 L161.319,161.638 L161.319,161.608 L161.27,161.608 L161.27,161.608 L161.367,161.608 L161.367,161.579 L161.392,161.579 L161.392,161.55 L161.416,161.55 L161.416,161.521 L161.465,161.521 L161.465,161.491 L161.49,161.491 L161.49,161.462 L161.538,161.462 L161.538,161.433 L161.587,161.433 L161.587,161.345 L161.636,161.345 L161.636,161.345 L161.685,161.345 L161.685,161.316 L161.734,161.316 L161.734,161.287 L161.783,161.287 L161.783,161.257 L161.832,161.257 L161.832,161.228 L161.881,161.228 L161.881,161.199 L161.929,161.199 L161.929,161.17 L161.978,161.17 L161.978,161.14 L162.027,161.14 L162.027,161.111 L162.076,161.111 L162.076,161.082 L162.125,161.082 L162.125,161.053 L162.198,161.053 L162.198,161.023 L162.247,161.023 L162.247,160.994 L162.32,160.994 L162.32,160.965 L162.369,160.965 L162.369,160.936 L162.443,160.936 L162.443,160.906 L162.516,160.906 L162.516,160.877 L162.589,160.877 L162.589,160.848 L162.687,160.848 L162.687,160.819 L162.76,160.819 L162.76,160.789 L162.785,160.789 L162.785,160.76 L162.956,160.76 L162.956,160.731 L163.078,160.731 L163.078,160.702 L163.225,160.702 L163.225,160.672 L163.42,160.672 L163.42,160.643 L163.518,160.643 L163.518,160.614 L163.518,160.614 L163.518,160.643 L163.762,160.643 L163.762,160.614 L163.982,160.614 L163.982,160.643 L164.3,160.643 L164.3,160.672 L164.495,160.672 L164.495,160.702 L164.617,160.702 L164.617,160.731 L164.74,160.731 L164.74,160.76 L164.789,160.76 L164.789,160.731 L164.789,160.731 L164.789,160.76 L164.837,160.76 L164.837,160.789 L164.935,160.789 L164.935,160.819 L165.008,160.819 L165.008,160.848 L165.082,160.848 L165.082,160.877 L165.155,160.877 L165.155,160.906 L165.204,160.906 L165.204,160.936 L165.277,160.936 L165.277,160.965 L165.326,160.965 L165.326,160.994 L165.399,160.994 L165.399,161.023 L165.448,161.023 L165.448,161.053 L165.497,161.053 L165.497,161.082 L165.546,161.082 L165.546,161.111 L165.595,161.111 L165.595,161.14 L165.644,161.14 L165.644,161.17 L165.668,161.17 L165.668,161.199 L165.717,161.199 L165.717,161.17 L165.717,161.17 L165.717,161.228 L165.766,161.228 L165.766,161.257 L165.815,161.257 L165.815,161.287 L165.839,161.287 L165.839,161.316 L165.888,161.316 L165.888,161.345 L165.913,161.345 L165.913,161.374 L165.937,161.374 L165.937,161.404 L165.986,161.404 L165.986,161.433 L166.01,161.433 L166.01,161.462 L166.059,161.462 L166.059,161.491 L166.084,161.491 L166.084,161.521 L166.108,161.521 L166.108,161.55 L166.133,161.55 L166.133,161.579 L166.157,161.579 L166.157,161.608 L166.255,161.608 L166.255,161.608 L166.206,161.608 L166.206,161.638 L166.23,161.638 L166.23,161.667 L166.255,161.667 L166.255,161.696 L166.279,161.696 L166.279,161.725 L166.328,161.725 L166.328,161.784 L166.352,161.784 L166.352,161.813 L166.377,161.813 L166.377,161.842 L166.401,161.842 L166.401,161.871 L166.426,161.871 L166.426,161.901 L166.45,161.901 L166.45,161.93 L166.499,161.93 L166.499,161.93 L166.475,161.93 L166.475,161.959 L166.499,161.959 L166.499,161.988 L166.524,161.988 L166.524,162.018 L166.548,162.018 L166.548,162.047 L166.572,162.047 L166.572,162.076 L166.597,162.076 L166.597,162.105 L166.621,162.105 L166.621,162.164 L166.646,162.164 L166.646,162.193 L166.67,162.193 L166.67,162.222 L166.695,162.222 L166.695,162.281 L166.719,162.281 L166.719,162.31 L166.743,162.31 L166.743,162.339 L166.768,162.339 L166.768,162.398 L166.792,162.398 L166.792,162.427 L166.841,162.427 L166.841,162.427 L166.817,162.427 L166.817,162.456 L166.841,162.456 L166.841,162.515 L166.866,162.515 L166.866,162.573 L166.89,162.573 L166.89,162.603 L166.915,162.603 L166.915,162.661 L166.939,162.661 L166.939,162.72 L166.963,162.72 L166.963,162.778 L166.988,162.778 L166.988,162.807 L167.012,162.807 L167.012,162.866 L167.037,162.866 L167.037,162.924 L167.061,162.924 L167.061,162.983 L167.086,162.983 L167.086,163.071 L167.11,163.071 L167.11,163.129 L167.134,163.129 L167.134,163.188 L167.159,163.188 L167.159,163.275 L167.183,163.275 L167.183,163.334 L167.208,163.334 L167.208,163.422 L167.232,163.422 L167.232,163.509 L167.257,163.509 L167.257,163.597 L167.281,163.597 L167.281,163.714 L167.305,163.714 L167.305,163.831 L167.33,163.831 L167.33,163.948 L167.354,163.948 L167.354,164.094 L167.379,164.094 L167.379,164.299 L167.403,164.299 L167.403,164.328 L167.428,164.328 L167.428,164.328 L167.403,164.328 L167.403,164.562 L167.428,164.562 L167.428,165.293 L167.403,165.293 L167.403,165.586 L167.379,165.586 L167.379,165.761 L167.354,165.761 L167.354,165.907 L167.33,165.907 L167.33,166.054 L167.305,166.054 L167.305,166.2 L167.281,166.2 L167.281,166.288 L167.257,166.288 L167.257,166.317 L167.305,166.317 L167.305,166.317 L167.257,166.317 L167.257,166.375 L167.232,166.375 L167.232,166.463 L167.208,166.463 L167.208,166.58 L167.183,166.58 L167.183,166.639 L167.208,166.639 L167.208,166.639 L167.183,166.639 L167.183,166.668 L167.159,166.668 L167.159,166.726 L167.183,166.726 L167.183,166.726 L167.134,166.726 L167.134,166.814 L167.11,166.814 L167.11,166.872 L167.086,166.872 L167.086,166.96 L167.061,166.96 L167.061,167.019 L167.037,167.019 L167.037,167.077 L167.012,167.077 L167.012,167.165 L166.988,167.165 L166.988,167.223 L166.963,167.223 L166.963,167.282 L166.939,167.282 L166.939,167.34 L166.915,167.34 L166.915,167.399 L166.89,167.399 L166.89,167.457 L166.866,167.457 L166.866,167.487 L166.841,167.487 L166.841,167.545 L166.817,167.545 L166.817,167.604 L166.792,167.604 L166.792,167.662 L166.768,167.662 L166.768,167.691 L166.743,167.691 L166.743,167.75 L166.719,167.75 L166.719,167.808 L166.695,167.808 L166.695,167.838 L166.67,167.838 L166.67,167.896 L166.646,167.896 L166.646,167.925 L166.621,167.925 L166.621,167.984 L166.597,167.984 L166.597,168.013 L166.572,168.013 L166.572,168.072 L166.548,168.072 L166.548,168.101 L166.524,168.101 L166.524,168.13 L166.499,168.13 L166.499,168.189 L166.475,168.189 L166.475,168.218 L166.45,168.218 L166.45,168.247 L166.426,168.247 L166.426,168.306 L166.401,168.306 L166.401,168.335 L166.377,168.335 L166.377,168.364 L166.352,168.364 L166.352,168.423 L166.328,168.423 L166.328,168.452 L166.304,168.452 L166.304,168.481 L166.279,168.481 L166.279,168.51 L166.255,168.51 L166.255,168.539 L166.23,168.539 L166.23,168.569 L166.206,168.569 L166.206,168.627 L166.181,168.627 L166.181,168.656 L166.157,168.656 L166.157,168.686 L166.133,168.686 L166.133,168.715 L166.108,168.715 L166.108,168.744 L166.084,168.744 L166.084,168.773 L166.059,168.773 L166.059,168.803 L166.035,168.803 L166.035,168.832 L166.01,168.832 L166.01,168.861 L165.986,168.861 L165.986,168.89 L165.961,168.89 L165.961,168.92 L165.937,168.92 L165.937,168.949 L165.913,168.949 L165.913,168.978 L165.888,168.978 L165.888,169.007 L165.864,169.007 L165.864,169.037 L165.839,169.037 L165.839,169.066 L165.815,169.066 L165.815,169.095 L165.79,169.095 L165.79,169.124 L165.766,169.124 L165.766,169.154 L165.742,169.154 L165.742,169.183 L165.717,169.183 L165.717,169.241 L165.717,169.241 L165.717,169.212 L165.693,169.212 L165.693,169.241 L165.668,169.241 L165.668,169.271 L165.644,169.271 L165.644,169.3 L165.619,169.3 L165.619,169.329 L165.57,169.329 L165.57,169.358 L165.546,169.358 L165.546,169.388 L165.522,169.388 L165.522,169.417 L165.497,169.417 L165.497,169.446 L165.473,169.446 L165.473,169.475 L165.424,169.475 L165.424,169.505 L165.399,169.505 L165.399,169.534 L165.375,169.534 L165.375,169.563 L165.326,169.563 L165.326,169.592 L165.302,169.592 L165.302,169.622 L165.277,169.622 L165.277,169.651 L165.228,169.651 L165.228,169.68 L165.204,169.68 L165.204,169.709 L165.155,169.709 L165.155,169.739 L165.131,169.739 L165.131,169.768 L165.106,169.768 L165.106,169.797 L165.057,169.797 L165.057,169.826 L165.033,169.826 L165.033,169.856 L164.984,169.856 L164.984,169.885 L164.96,169.885 L164.96,169.914 L164.911,169.914 L164.911,169.943 L164.886,169.943 L164.886,169.973 L164.837,169.973 L164.837,170.002 L164.813,170.002 L164.813,170.031 L164.789,170.031 L164.789,170.06 L164.789,170.06 L164.789,170.031 L164.764,170.031 L164.764,170.06 L164.715,170.06 L164.715,170.089 L164.666,170.089 L164.666,170.119 L164.642,170.119 L164.642,170.148 L164.593,170.148 L164.593,170.177 L164.544,170.177 L164.544,170.206 L164.495,170.206 L164.495,170.236 L164.471,170.236 L164.471,170.265 L164.422,170.265 L164.422,170.294 L164.373,170.294 L164.373,170.323 L164.324,170.323 L164.324,170.353 L164.275,170.353 L164.275,170.382 L164.226,170.382 L164.226,170.411 L164.178,170.411 L164.178,170.44 L164.129,170.44 L164.129,170.47 L164.055,170.47 L164.055,170.499 L164.007,170.499 L164.007,170.528 L163.982,170.528 L163.982,170.557 L163.982,170.557 L163.982,170.528 L163.958,170.528 L163.958,170.557 L163.909,170.557 L163.909,170.587 L163.86,170.587 L163.86,170.616 L163.811,170.616 L163.811,170.645 L163.738,170.645 L163.738,170.674 L163.664,170.674 L163.664,170.704 L163.591,170.704 L163.591,170.733 L163.542,170.733 L163.542,170.762 L163.518,170.762 L163.518,170.791 L163.518,170.791 L163.518,170.762 L163.469,170.762 L163.469,170.791 L163.396,170.791 L163.396,170.821 L163.322,170.821 L163.322,170.85 L163.249,170.85 L163.249,170.879 L163.151,170.879 L163.151,170.908 L163.078,170.908 L163.078,170.938 L162.98,170.938 L162.98,170.967 L162.907,170.967 L162.907,170.996 L162.858,170.996 L162.858,171.025 L162.858,171.025 L162.858,170.996 L162.809,170.996 L162.809,171.025 L162.785,171.025 L162.785,171.055 L162.785,171.055 L162.785,171.025 L162.687,171.025 L162.687,171.055 L162.565,171.055 L162.565,171.084 L162.443,171.084 L162.443,171.113 L162.296,171.113 L162.296,171.142 L162.125,171.142 L162.125,171.172 L161.905,171.172 L161.905,171.185 C158.587,170.473 156.44,167.486 156.357,164.179 C156.357,160.201 159.581,156.976 163.559,156.976 z M162.809,168.598 L162.785,168.598 L162.785,168.627 L162.809,168.627 L162.809,168.598 z M162.907,168.569 L162.858,168.569 L162.858,168.598 L162.907,168.598 L162.907,168.569 z M168.43,167.984 L168.381,167.984 L168.381,168.042 L168.405,168.042 L168.405,168.013 L168.43,168.013 L168.43,167.984 z M164.031,167.867 L163.982,167.867 L163.982,167.896 L164.031,167.896 L164.031,167.867 z M168.698,167.282 L168.649,167.282 L168.649,167.37 L168.674,167.37 L168.674,167.311 L168.698,167.311 L168.698,167.282 z M164.837,166.872 L164.789,166.872 L164.789,166.931 L164.813,166.931 L164.813,166.902 L164.837,166.902 L164.837,166.872 z M160.879,166.609 L160.854,166.609 L160.854,166.639 L160.879,166.639 L160.879,166.609 z M162.858,165.732 L162.785,165.732 L162.785,165.79 L162.809,165.79 L162.809,165.761 L162.858,165.761 L162.858,165.732 z M162.882,165.732 L162.858,165.732 L162.858,165.761 L162.882,165.761 L162.882,165.732 z M160.366,162.866 L160.317,162.866 L160.317,162.924 L160.341,162.924 L160.341,162.895 L160.366,162.895 L160.366,162.866 z M163.689,162.895 L163.518,162.895 L163.518,162.924 L163.689,162.924 L163.689,162.895 z M160.439,162.72 L160.39,162.72 L160.39,162.778 L160.414,162.778 L160.414,162.749 L160.439,162.749 L160.439,162.72 z M160.61,162.427 L160.585,162.427 L160.585,162.456 L160.61,162.456 L160.61,162.427 z M160.634,162.398 L160.585,162.398 L160.585,162.427 L160.634,162.427 L160.634,162.398 z M160.903,162.047 L160.854,162.047 L160.854,162.105 L160.879,162.105 L160.879,162.076 L160.903,162.076 L160.903,162.047 z M161.099,161.813 L161.05,161.813 L161.05,161.871 L161.074,161.871 L161.074,161.842 L161.099,161.842 L161.099,161.813 z M168.405,161.491 L168.381,161.491 L168.381,161.521 L168.405,161.521 L168.405,161.491 z M161.661,161.345 L161.587,161.345 L161.587,161.404 L161.612,161.404 L161.612,161.374 L161.661,161.374 L161.661,161.345 z M162.858,160.76 L162.785,160.76 L162.785,160.789 L162.858,160.789 L162.858,160.76 z" fill="#019051"/>
    <path d="M166.096,179.561 L166.096,179.561 L165.954,179.561 L165.954,179.561 L166.096,179.561 z" fill="#019010"/>
    <path d="M170.801,179.084 L170.762,179.101 L170.762,179.084 L170.801,179.084 z" fill="#019010"/>
    <path d="M168.628,178.403 L168.628,178.403 L168.571,178.403 L168.571,178.403 L168.628,178.403 z" fill="#019010"/>
    <path d="M169.823,177.348 L169.823,177.348 L169.795,177.348 L169.795,177.348 L169.823,177.348 z" fill="#019010"/>
    <path d="M170.307,176.769 L170.307,176.769 L170.279,176.769 L170.279,176.769 L170.307,176.769 z" fill="#019010"/>
    <path d="M166.125,174.556 L166.125,174.556 L166.068,174.556 L166.068,174.556 L166.125,174.556 z" fill="#019010"/>
    <path d="M165.385,171.185 L165.385,171.185 L165.357,171.185 L165.357,171.185 L165.385,171.185 z" fill="#019010"/>
    <path d="M161.459,170.027 L161.459,170.027 L161.43,170.027 L161.43,170.027 L161.459,170.027 z" fill="#019010"/>
    <path d="M161.914,168.972 L161.914,168.972 L161.886,168.972 L161.886,168.972 L161.914,168.972 z" fill="#019010"/>
    <path d="M162.085,168.597 L162.085,168.631 L162.085,168.631 L162.085,168.597 L162.085,168.597 z" fill="#019010"/>
    <path d="M162.255,168.393 L162.255,168.393 L162.227,168.393 L162.227,168.393 L162.255,168.393 z" fill="#019010"/>
    <path d="M162.768,167.712 L162.768,167.712 L162.739,167.712 L162.739,167.712 L162.768,167.712 z" fill="#019010"/>
    <path d="M164.503,166.179 L164.503,166.18 L164.446,166.18 L164.446,166.179 L164.503,166.179 z" fill="#019010"/>
    <path d="M164.702,166.077 L164.702,166.077 L164.645,166.077 L164.645,166.077 L164.702,166.077 z" fill="#019010"/>
    <path d="M164.873,165.975 L164.873,165.975 L164.816,165.975 L164.816,165.975 L164.873,165.975 z" fill="#019010"/>
  </g>
</svg>
